<?xml version="1.0" encoding="UTF-8"?>
<svg xmlns="http://www.w3.org/2000/svg" width="1080" height="2400" viewBox="0 0 1080 2400" role="img" aria-label="Warren splash with name — light"><title>Warren splash with name — light</title><rect width="1080.0" height="2400.0" fill="#F3F5F2" /><g transform="translate(320.399 900.731) scale(0.35)"><path fill="#17211F" fill-rule="evenodd" d="M557 988.958 C475.789 985.781 418.207 967.066 372.846 929.106 C330.128 893.357 306.761 839.67 303.302 769.323 L302.703 757.147 L297.601 756.49 C258.463 751.447 227.317 716.34 215.774 664.259 C212.552 649.721 212.546 621.799 215.761 610.701 C222.996 585.729 236.773 573.462 257.5 573.535 C269.305 573.577 274.661 575.335 286.474 583.047 C293.153 587.407 293.975 587.72 293.529 585.741 C292.598 581.608 286.094 533.628 284.914 522.191 C280.548 479.873 290.63 450.947 319.405 423.232 C334.275 408.909 333.319 409.366 341.09 412.877 C361.397 422.053 375.519 424.461 409 424.456 C475.806 424.447 531.286 407.898 629.754 358.608 C665.045 340.943 684.155 332.395 701.153 326.671 C770.448 303.338 816.782 314.104 854.287 362.25 C857.607 366.512 860.451 370 860.608 370 C861.056 370 858.01 360.1 855.531 353.5 C842.693 319.318 820.972 298.535 789 289.845 C775.81 286.259 746.681 286.493 728.622 290.328 C702.556 295.864 673.154 306.996 639.5 324.069 C629.05 329.37 606.775 340.67 590 349.179 C539.965 374.559 498.881 389.109 453.753 397.432 C410.31 405.444 368.431 404.886 341.223 395.933 C317.276 388.052 297.614 370.596 291.164 351.491 C287.528 340.72 289.7 338.731 307 336.984 C352.307 332.409 387.715 318.806 463 277.055 C557.441 224.68 616.136 204.95 677.301 205.02 C757.187 205.11 820.153 244.913 840.933 308.456 L844.515 319.411 L853.174 321.153 C900.213 330.614 934.098 362.191 964.085 424.508 C975.43 448.086 978.616 462.881 977.709 487.774 C976.962 508.278 971.297 542.434 962.579 579 C960.355 588.328 960.457 588.47 966.25 584.145 C994.242 563.245 1025.548 572.432 1036.484 604.754 C1047.089 636.1 1038.12 685.408 1015.992 717.418 C1000.785 739.416 976.927 754.979 956.5 756.226 L951.5 756.531 L950.766 769.016 C947.081 831.695 930.086 875.649 895.514 911.905 C855.534 953.834 797.89 978.44 720.86 986.459 C689.825 989.69 607.7 990.942 557 988.958 Z M485.925 777.469 C548.309 768.745 583.033 734.607 599.932 665.386 C602.774 653.745 604.818 650.418 610.777 647.743 C617.394 644.772 631.99 644.118 639.239 646.468 C648.535 649.481 650.33 652.081 654.854 669.079 C675.88 748.083 717.586 779.081 802.808 779.044 C892.422 779.006 926.864 748.989 936.527 662.508 C940.605 626.017 936.423 607.422 920.202 589.901 C897.91 565.824 867.655 557.993 797 558.013 C711.814 558.038 677.046 570.256 658.681 606.625 C655.424 613.075 654.727 613.311 644.304 611.494 C633.319 609.578 620.591 609.594 609.448 611.537 C598.549 613.438 599.121 613.689 594.186 604.834 C580.643 580.532 557.683 566.601 522.828 561.537 C488.363 556.53 417.306 557.337 387.41 563.074 C349.626 570.325 324.388 591.045 317.428 620.528 C315.27 629.67 316.015 657.048 318.915 675.211 C330.505 747.782 359.962 774.452 434 779.408 C444.385 780.104 475.357 778.947 485.925 777.469 Z M933.328 538.25 C944.858 491.212 932.653 458.012 882.239 399.274 C875.995 392 870.5 385.809 870.028 385.517 C869.556 385.226 873.23 393.652 878.192 404.243 C899.914 450.606 912.277 483.63 923.963 526.5 C926.211 534.75 928.322 543.188 928.653 545.25 C929.599 551.14 930.499 549.792 933.328 538.25 Z M419.5 747.852 C371.315 742.51 351.126 715.852 350.694 657 C350.558 638.526 351.603 631.869 356.152 622.243 C363.674 606.325 380.086 597.521 409.135 593.82 C423.117 592.039 492.257 592.031 507.5 593.809 C559.943 599.925 577.856 623.449 565.876 670.469 C553.767 717.993 528.113 741.369 481.334 747.501 C468.705 749.156 433.092 749.358 419.5 747.852 Z M780.5 748.388 C726.307 742.836 699.021 719.06 687.097 667 C678.642 630.082 691.322 606.23 723.824 597.917 C743.628 592.852 802.048 590.241 836.368 592.888 C887.152 596.803 903.791 612.492 903.307 656 C902.68 712.219 884.636 738.563 841.295 746.534 C832.776 748.101 790.333 749.395 780.5 748.388 Z" /></g><g transform="translate(376.6 1385.3)"><g fill="#17211F"><path d="M73.0 0.0 93.2 -72.9H77.30000000000001L66.4 -18.2L54.6 -72.9H39.800000000000004L28.5 -18.3L17.2 -72.9H1.3L21.900000000000002 0.0H35.4L47.300000000000004 -56.900000000000006L59.5 0.0Z" /><path d="M141.5 -1.7000000000000002C139.10000000000002 -4.0 138.3 -5.6000000000000005 138.3 -8.3V-38.300000000000004C138.3 -49.300000000000004 130.8 -54.900000000000006 116.20000000000002 -54.900000000000006C101.60000000000001 -54.900000000000006 94.00000000000001 -48.7 93.10000000000001 -36.2H106.60000000000001C107.30000000000001 -41.800000000000004 109.60000000000001 -43.6 116.50000000000001 -43.6C121.9 -43.6 124.60000000000001 -41.800000000000004 124.60000000000001 -38.2C124.60000000000001 -36.4 123.70000000000002 -34.9 122.20000000000002 -34.0C120.30000000000001 -33.0 120.30000000000001 -33.0 113.4 -31.900000000000002L107.80000000000001 -30.900000000000002C97.10000000000001 -29.1 91.9 -23.6 91.9 -13.9C91.9 -4.2 98.4 2.3000000000000003 108.30000000000001 2.3000000000000003C114.30000000000001 2.3000000000000003 119.70000000000002 -0.2 124.70000000000002 -5.4C124.70000000000002 -2.6 125.0 -1.6 126.30000000000001 0.0H141.5ZM124.60000000000001 -21.700000000000003C124.60000000000001 -13.600000000000001 120.60000000000001 -9.0 113.50000000000001 -9.0C108.80000000000001 -9.0 105.9 -11.5 105.9 -15.5C105.9 -19.700000000000003 108.10000000000001 -21.700000000000003 113.9 -22.900000000000002L118.70000000000002 -23.8C122.4 -24.5 123.0 -24.700000000000003 124.60000000000001 -25.5Z" /><path d="M149.20000000000002 -54.0V0.0H163.20000000000002V-28.700000000000003C163.20000000000002 -36.9 167.3 -41.0 175.5 -41.0C177.0 -41.0 178.0 -40.900000000000006 179.9 -40.6V-54.800000000000004C179.10000000000002 -54.900000000000006 178.8 -54.900000000000006 178.20000000000002 -54.900000000000006C171.8 -54.900000000000006 166.3 -50.7 163.20000000000002 -43.400000000000006V-54.0Z" /><path d="M186.3 -54.0V0.0H200.3V-28.700000000000003C200.3 -36.9 204.4 -41.0 212.6 -41.0C214.1 -41.0 215.1 -40.900000000000006 217.0 -40.6V-54.800000000000004C216.2 -54.900000000000006 215.9 -54.900000000000006 215.3 -54.900000000000006C208.9 -54.900000000000006 203.4 -50.7 200.3 -43.400000000000006V-54.0Z" /><path d="M269.5 -22.6C269.6 -23.8 269.6 -24.3 269.6 -25.0C269.6 -30.400000000000002 268.8 -35.4 267.5 -39.2C263.90000000000003 -49.0 255.20000000000002 -54.900000000000006 244.3 -54.900000000000006C228.8 -54.900000000000006 219.3 -43.7 219.3 -25.6C219.3 -8.3 228.70000000000002 2.3000000000000003 244.00000000000003 2.3000000000000003C256.1 2.3000000000000003 265.90000000000003 -4.5 269.0 -15.200000000000001H255.20000000000002C253.50000000000003 -10.9 249.60000000000002 -8.4 244.50000000000003 -8.4C240.50000000000003 -8.4 237.3 -10.100000000000001 235.3 -13.100000000000001C234.00000000000003 -15.100000000000001 233.50000000000003 -17.5 233.3 -22.6ZM233.50000000000003 -31.900000000000002C234.40000000000003 -40.2 237.90000000000003 -44.2 244.10000000000002 -44.2C250.50000000000003 -44.2 254.3 -39.900000000000006 255.00000000000003 -31.900000000000002Z" /><path d="M277.20000000000005 -54.0V0.0H291.20000000000005V-32.4C291.20000000000005 -38.800000000000004 295.6 -43.0 302.50000000000006 -43.0C308.50000000000006 -43.0 311.50000000000006 -39.7 311.50000000000006 -33.300000000000004V0.0H325.50000000000006V-36.2C325.50000000000006 -48.2 319.00000000000006 -54.900000000000006 307.40000000000003 -54.900000000000006C300.1 -54.900000000000006 295.20000000000005 -52.300000000000004 291.20000000000005 -46.2V-54.0Z" /></g></g></svg>
